<svg width="273.194" height="83.696" viewBox="0 0 273.194 83.696" xmlns="http://www.w3.org/2000/svg"><g id="svgGroup" stroke-linecap="round" fill-rule="evenodd" font-size="9pt" stroke="#2291FF" stroke-width="0.25mm" fill="#2291FF" style="stroke:#2291FF;stroke-width:0.25mm;fill:#2291FF"><path d="M 85.219 58.785 L 87.882 52.867 A 121.829 121.829 0 0 0 89.266 49.681 Q 92.806 41.177 91.684 39.362 A 1.206 1.206 0 0 0 91.679 39.355 A 3.679 3.679 0 0 0 91.15 38.711 Q 90.575 38.142 89.617 37.573 A 13.176 13.176 0 0 0 89.46 37.481 A 1.136 1.136 0 0 1 88.918 36.728 A 1.955 1.955 0 0 1 88.868 36.272 A 2.17 2.17 0 0 1 89.162 35.197 A 3.189 3.189 0 0 1 89.583 34.62 A 5.81 5.81 0 0 1 90.521 33.795 A 7.716 7.716 0 0 1 91.433 33.24 Q 93.849 32.105 96.266 32.105 Q 98.408 32.105 99.64 32.512 A 4.485 4.485 0 0 1 99.94 32.623 A 7.305 7.305 0 0 1 101.016 33.168 A 5.381 5.381 0 0 1 101.987 33.93 A 6.155 6.155 0 0 1 103.002 35.24 A 4.573 4.573 0 0 1 103.614 37.53 Q 103.614 39.503 102.973 41.944 A 53.654 53.654 0 0 1 102.233 44.49 A 70.986 70.986 0 0 1 101.296 47.245 A 171.514 171.514 0 0 1 99.632 51.647 A 193.354 193.354 0 0 1 99.028 53.163 Q 96.248 59.69 94.949 62.596 A 103.369 103.369 0 0 1 94.441 63.717 L 92.616 67.514 A 39.213 39.213 0 0 0 92.021 68.906 Q 91.169 71.018 91.095 72.101 A 2.891 2.891 0 0 0 91.088 72.298 A 6.843 6.843 0 0 0 91.115 72.938 Q 91.178 73.6 91.38 74.005 A 1.428 1.428 0 0 0 91.531 74.246 A 1.283 1.283 0 0 0 92.057 74.634 Q 92.479 74.812 93.125 74.813 A 4.695 4.695 0 0 0 93.134 74.813 Q 94.271 74.813 95.762 73.77 A 10.317 10.317 0 0 0 95.822 73.728 Q 97.01 72.885 98.378 71.595 A 38.542 38.542 0 0 0 99.176 70.819 A 51.901 51.901 0 0 0 101.037 68.852 A 68.344 68.344 0 0 0 102.973 66.602 A 107.127 107.127 0 0 0 106.82 61.646 Q 109.868 57.5 111.577 54.694 A 40.05 40.05 0 0 0 112.244 53.558 A 3983.101 3983.101 0 0 1 114.706 49.21 Q 121.902 36.518 123.168 34.548 A 4.025 4.025 0 0 1 123.39 34.226 A 8.217 8.217 0 0 1 124.221 33.261 Q 125.4 32.105 126.62 32.105 Q 128.098 32.105 129.24 32.401 A 7.241 7.241 0 0 1 129.505 32.475 A 7.052 7.052 0 0 1 130.783 32.993 A 5.762 5.762 0 0 1 131.626 33.535 A 6.213 6.213 0 0 1 132.289 34.094 Q 133.562 35.344 132.957 36.593 A 633.425 633.425 0 0 0 128.835 45.351 Q 120.815 62.763 120 68.069 A 10.581 10.581 0 0 0 119.987 68.156 A 85.539 85.539 0 0 0 119.885 69.12 Q 119.74 70.571 119.74 71.213 A 9.26 9.26 0 0 0 119.82 72.487 Q 120.166 74.961 122.009 74.961 Q 123.715 74.961 124.943 74.466 A 5.139 5.139 0 0 0 125.51 74.197 A 16.865 16.865 0 0 1 125.997 73.937 Q 126.784 73.535 127.198 73.453 A 0.979 0.979 0 0 1 127.384 73.432 Q 128.285 73.432 128.47 74.147 A 1.671 1.671 0 0 1 128.519 74.567 A 7.868 7.868 0 0 1 126.083 80.277 A 12.427 12.427 0 0 1 124.278 81.767 A 11.457 11.457 0 0 1 119.206 83.551 A 14.574 14.574 0 0 1 117.571 83.641 A 10.825 10.825 0 0 1 115.742 83.496 Q 114.737 83.324 113.937 82.945 A 5.103 5.103 0 0 1 112.738 82.161 A 9.131 9.131 0 0 1 110.629 79.505 A 8.301 8.301 0 0 1 109.729 75.652 A 17.498 17.498 0 0 1 110.018 72.693 Q 110.554 69.605 112.087 65.257 A 102.98 102.98 0 0 1 113.822 60.709 Q 107.25 69.586 104.075 73.311 A 46.488 46.488 0 0 1 103.17 74.345 A 80.698 80.698 0 0 1 101.161 76.49 Q 100.247 77.428 99.418 78.205 A 33.887 33.887 0 0 1 97.844 79.597 A 25.755 25.755 0 0 1 95.144 81.552 Q 91.848 83.604 89.019 83.64 A 7.926 7.926 0 0 1 88.918 83.641 Q 83.015 83.641 80.926 78.724 A 10.836 10.836 0 0 1 80.78 78.364 A 9.581 9.581 0 0 1 80.302 76.385 A 12.862 12.862 0 0 1 80.189 74.641 Q 80.189 72.545 80.904 69.956 A 46.866 46.866 0 0 1 81.961 66.633 A 56.19 56.19 0 0 1 82.753 64.555 A 157.67 157.67 0 0 1 84.889 59.523 A 174.494 174.494 0 0 1 85.219 58.785 Z M 183.852 47.048 L 181.139 56.172 A 282.489 282.489 0 0 0 179.949 60.428 Q 178.171 67.001 177.761 70.106 A 12.23 12.23 0 0 0 177.638 71.657 A 6.656 6.656 0 0 0 177.734 72.842 Q 178.119 74.961 180.054 74.961 A 13.615 13.615 0 0 0 181.415 74.897 Q 182.711 74.767 183.605 74.369 L 185.479 73.482 A 2.71 2.71 0 0 1 185.912 73.29 Q 186.183 73.199 186.441 73.187 A 1.664 1.664 0 0 1 186.515 73.186 A 1.419 1.419 0 0 1 186.931 73.242 Q 187.388 73.382 187.508 73.876 A 1.681 1.681 0 0 1 187.551 74.271 Q 187.551 78.47 183.247 81.509 A 16.331 16.331 0 0 1 183.161 81.57 A 13.782 13.782 0 0 1 181.199 82.749 Q 180.079 83.292 179.011 83.505 A 6.905 6.905 0 0 1 177.663 83.641 A 18.419 18.419 0 0 1 176.078 83.577 Q 175.325 83.512 174.691 83.38 A 7.319 7.319 0 0 1 173.545 83.049 A 7.494 7.494 0 0 1 171.136 81.522 A 8.845 8.845 0 0 1 170.783 81.175 A 9.83 9.83 0 0 1 168.477 76.879 Q 168.078 75.359 168.028 73.558 A 18.796 18.796 0 0 1 168.021 73.038 Q 168.021 72.257 168.245 70.776 A 48.24 48.24 0 0 1 168.416 69.734 A 83.887 83.887 0 0 1 166.258 72.913 Q 164.236 75.74 162.557 77.462 A 17.985 17.985 0 0 1 161.561 78.413 Q 157.604 81.998 153.763 83.125 A 12.372 12.372 0 0 1 150.267 83.641 A 14.632 14.632 0 0 1 145.751 82.99 Q 140.76 81.375 138.826 75.75 A 16.665 16.665 0 0 1 138.19 73.156 Q 137.84 71.066 137.84 68.451 A 30.838 30.838 0 0 1 138.971 60.275 A 34.696 34.696 0 0 1 139.171 59.574 Q 140.503 55.087 142.796 51.043 A 45.706 45.706 0 0 1 148.122 43.522 A 45.335 45.335 0 0 1 152.852 38.82 A 39.858 39.858 0 0 1 154.509 37.481 Q 161.709 32.105 167.528 32.105 A 11.482 11.482 0 0 1 172.548 33.18 Q 175.016 34.361 176.849 36.84 A 552.338 552.338 0 0 1 179.918 26.665 Q 186.178 6.668 189.696 2.261 A 8.065 8.065 0 0 1 189.77 2.17 A 8.194 8.194 0 0 1 190.863 1.079 Q 192.191 0 193.616 0 A 9.325 9.325 0 0 1 195.598 0.198 Q 197.523 0.616 198.696 1.924 A 2.762 2.762 0 0 1 199.005 2.364 Q 199.165 2.654 199.216 2.943 A 1.535 1.535 0 0 1 199.238 3.206 A 1.822 1.822 0 0 1 199.195 3.566 Q 199.054 4.252 198.449 5.573 Q 197.66 7.299 196.132 11.146 Q 191.906 22.302 190.103 27.7 A 128.398 128.398 0 0 0 189.967 28.111 A 2713.556 2713.556 0 0 0 188.003 34.089 Q 185.75 40.975 184.513 44.913 A 270.128 270.128 0 0 0 183.852 47.048 Z M 17.261 65.69 L 14.45 61.744 Q 8.532 53.854 8.532 47.196 A 12.687 12.687 0 0 1 11.167 39.493 A 18.216 18.216 0 0 1 13.217 37.185 A 18.179 18.179 0 0 1 23.843 32.286 A 24.801 24.801 0 0 1 26.878 32.105 A 23.824 23.824 0 0 1 31.42 32.512 Q 34.051 33.023 36.108 34.178 A 12.599 12.599 0 0 1 38.27 35.705 A 11.148 11.148 0 0 1 40.23 37.88 A 7.865 7.865 0 0 1 41.623 42.363 A 8.275 8.275 0 0 1 41.097 45.369 A 7.456 7.456 0 0 1 38.664 48.577 A 9.016 9.016 0 0 1 37.098 49.569 Q 35.771 50.218 34.444 50.218 A 5.525 5.525 0 0 1 33.338 50.106 A 2.971 2.971 0 0 1 32.276 49.671 A 2.767 2.767 0 0 1 31.513 48.897 A 2.288 2.288 0 0 1 31.117 47.603 Q 31.117 47.173 31.267 46.703 A 8.363 8.363 0 0 0 31.661 44.138 A 6.302 6.302 0 0 0 31.395 42.289 A 5.766 5.766 0 0 0 31.168 41.673 A 5.912 5.912 0 0 0 30.234 40.165 A 5.433 5.433 0 0 0 29.837 39.749 Q 28.215 38.22 26.44 38.128 A 4.399 4.399 0 0 0 26.212 38.122 A 14.179 14.179 0 0 0 24.933 38.176 Q 24.335 38.23 23.824 38.339 A 6.524 6.524 0 0 0 23.08 38.541 A 6.75 6.75 0 0 0 21.21 39.512 A 6.334 6.334 0 0 0 20.91 39.749 A 5.894 5.894 0 0 0 19.382 41.934 A 5.912 5.912 0 0 0 18.987 44.114 Q 18.987 46.612 19.813 48.444 A 7.813 7.813 0 0 0 19.875 48.577 A 25.166 25.166 0 0 0 21.442 51.388 A 29.2 29.2 0 0 0 22.069 52.325 A 73.682 73.682 0 0 0 24.154 55.164 A 82.152 82.152 0 0 0 24.905 56.122 A 38.532 38.532 0 0 1 27.716 60.166 Q 29.722 63.382 30.433 66.093 A 11.155 11.155 0 0 1 30.823 68.92 Q 30.823 72.4 29.48 74.831 A 9.066 9.066 0 0 1 29.245 75.232 Q 27.667 77.772 25.152 79.597 A 19.684 19.684 0 0 1 13.118 83.592 A 21.436 21.436 0 0 1 9.059 83.23 Q 6.714 82.778 4.862 81.758 A 11.628 11.628 0 0 1 3.058 80.534 A 9.531 9.531 0 0 1 1.225 78.524 A 7.17 7.17 0 0 1 0 74.468 A 6.157 6.157 0 0 1 0.666 71.632 A 7.907 7.907 0 0 1 1.664 70.114 A 6.865 6.865 0 0 1 2.318 69.438 A 8.375 8.375 0 0 1 3.832 68.304 Q 5.119 67.564 6.477 67.518 A 5.326 5.326 0 0 1 6.658 67.514 Q 8.231 67.514 8.55 68.8 A 3.067 3.067 0 0 1 8.631 69.536 A 12.039 12.039 0 0 0 8.9 72.176 Q 9.588 75.234 12.033 76.687 A 5.166 5.166 0 0 0 13.612 77.323 A 4.687 4.687 0 0 0 14.598 77.427 Q 15.929 77.427 16.866 77.131 A 5.203 5.203 0 0 0 18.592 76.194 A 5.401 5.401 0 0 0 19.63 75.109 A 3.931 3.931 0 0 0 20.368 72.791 A 7.536 7.536 0 0 0 19.48 69.167 A 26.256 26.256 0 0 0 18.482 67.471 A 34.717 34.717 0 0 0 17.261 65.69 Z M 53.656 33.881 L 57.552 33.881 A 205.398 205.398 0 0 1 59.442 29.58 Q 63.204 21.301 65.05 19.755 A 2.675 2.675 0 0 1 65.147 19.678 A 4.012 4.012 0 0 1 67.564 18.888 Q 68.583 18.888 69.342 19.091 A 4.197 4.197 0 0 1 69.783 19.234 A 4.916 4.916 0 0 1 71.361 20.22 Q 72.939 21.699 72.939 23.524 A 4.011 4.011 0 0 1 72.842 24.374 Q 72.752 24.785 72.582 25.236 A 8.532 8.532 0 0 1 72.347 25.793 L 68.698 33.733 L 69.882 33.733 A 326.506 326.506 0 0 0 71.336 33.73 Q 73.116 33.722 74.405 33.693 A 96.388 96.388 0 0 0 74.813 33.683 L 77.624 33.634 A 28.528 28.528 0 0 1 78.122 33.612 Q 78.913 33.585 79.967 33.585 A 2.811 2.811 0 0 1 80.471 33.626 Q 81.332 33.784 81.37 34.548 A 1.447 1.447 0 0 1 81.372 34.62 Q 81.372 41.13 65.986 41.13 L 65.591 41.13 L 62.238 49.81 Q 56.566 65.197 56.566 71.361 Q 56.566 72.598 56.971 73.442 A 2.992 2.992 0 0 0 57.355 74.049 A 2.188 2.188 0 0 0 58.182 74.653 Q 58.904 74.972 60.034 75.006 A 9.192 9.192 0 0 0 60.314 75.011 Q 62.484 75.011 64.259 74.271 A 19.445 19.445 0 0 0 66.021 73.436 A 14.933 14.933 0 0 0 67.366 72.619 Q 68.438 71.885 69.27 71.262 A 36.48 36.48 0 0 0 69.66 70.967 Q 70.621 70.227 71.312 70.227 A 1.491 1.491 0 0 1 71.971 70.363 Q 72.601 70.669 72.716 71.668 A 4.214 4.214 0 0 1 72.742 72.15 A 5.519 5.519 0 0 1 72.14 74.633 A 6.944 6.944 0 0 1 71.756 75.306 A 9.579 9.579 0 0 1 70.234 77.582 Q 68.801 79.209 66.429 80.731 Q 61.892 83.641 57.306 83.641 A 13.365 13.365 0 0 1 53.424 83.117 Q 49.188 81.834 47.534 77.401 A 13.544 13.544 0 0 1 47.245 76.539 A 11.67 11.67 0 0 1 46.846 74.469 Q 45.897 65.729 53.663 43.899 A 300.62 300.62 0 0 1 54.791 40.785 A 34.828 34.828 0 0 1 52.846 40.565 Q 49.027 40.014 48.626 38.812 A 2.908 2.908 0 0 1 48.487 38.105 A 3.442 3.442 0 0 1 48.478 37.851 A 1.431 1.431 0 0 1 48.544 37.438 Q 48.65 37.085 48.929 36.669 A 4.712 4.712 0 0 1 48.947 36.642 A 6.283 6.283 0 0 1 49.599 35.84 A 8.021 8.021 0 0 1 50.155 35.311 Q 51.71 34.022 53.306 33.895 A 4.402 4.402 0 0 1 53.656 33.881 Z M 263.255 74.564 A 4.379 4.379 0 0 0 263.399 74.567 A 11.758 11.758 0 0 0 264.949 74.471 Q 266.161 74.309 267.073 73.876 Q 268.28 73.304 268.825 73.206 A 1.132 1.132 0 0 1 269.021 73.186 A 1.419 1.419 0 0 1 269.437 73.242 Q 269.895 73.382 270.014 73.876 A 1.681 1.681 0 0 1 270.057 74.271 A 7.699 7.699 0 0 1 268.053 79.436 Q 267.075 80.566 265.618 81.57 A 13.103 13.103 0 0 1 262.883 83.023 Q 259.641 84.255 256.308 83.23 A 11.562 11.562 0 0 1 256.051 83.148 A 7.393 7.393 0 0 1 252.247 80.072 A 10.906 10.906 0 0 1 251.317 78.265 A 12.602 12.602 0 0 1 250.838 76.76 Q 250.642 75.966 250.593 75.24 A 7.08 7.08 0 0 1 250.577 74.764 A 29.995 29.995 0 0 1 250.789 71.271 A 36.189 36.189 0 0 1 251.07 69.339 Q 247.612 76.403 242.893 80.16 A 20.052 20.052 0 0 1 239.678 82.26 Q 236.966 83.641 233.908 83.641 A 12.512 12.512 0 0 1 231.262 83.374 A 9.501 9.501 0 0 1 228.606 82.383 A 11.616 11.616 0 0 1 224.884 79.044 A 13.394 13.394 0 0 1 224.784 78.907 A 16.199 16.199 0 0 1 222.229 72.655 Q 221.85 70.673 221.85 68.435 A 27.638 27.638 0 0 1 221.875 67.268 A 35.256 35.256 0 0 1 225.259 53.497 A 43.184 43.184 0 0 1 227.053 50.056 A 41.282 41.282 0 0 1 235.116 39.857 A 38.199 38.199 0 0 1 238.396 37.185 A 33.039 33.039 0 0 1 242.799 34.398 Q 247.209 32.105 251.218 32.105 A 10.677 10.677 0 0 1 259.512 35.859 A 15.414 15.414 0 0 1 260.835 37.579 A 28.898 28.898 0 0 1 262.235 35.514 Q 264.626 32.322 266.587 32.119 A 2.565 2.565 0 0 1 266.851 32.105 A 12.218 12.218 0 0 1 268.399 32.197 Q 269.164 32.294 269.788 32.498 A 4.665 4.665 0 0 1 271.092 33.141 A 10.609 10.609 0 0 1 271.911 33.795 Q 273.194 34.939 273.194 35.901 A 1.452 1.452 0 0 1 273.016 36.593 Q 260.763 61.684 260.3 68.027 A 7.422 7.422 0 0 0 260.292 68.156 Q 260.194 69.043 260.194 70.03 Q 260.194 74.464 263.255 74.564 Z M 198.203 57.602 L 200.817 51.388 Q 203.159 45.694 203.583 43.175 A 5.903 5.903 0 0 0 203.677 42.215 A 16.679 16.679 0 0 0 203.655 41.316 Q 203.58 39.949 203.261 39.369 A 1.332 1.332 0 0 0 203.208 39.281 A 5.177 5.177 0 0 0 202.786 38.719 Q 202.543 38.44 202.283 38.236 A 3.042 3.042 0 0 0 202.197 38.171 L 201.211 37.481 Q 200.798 37.191 200.731 36.539 A 2.611 2.611 0 0 1 200.718 36.272 A 2.315 2.315 0 0 1 201.029 35.127 A 3.255 3.255 0 0 1 201.384 34.62 A 5.399 5.399 0 0 1 202.308 33.763 A 7.148 7.148 0 0 1 203.134 33.24 A 10.192 10.192 0 0 1 206.197 32.265 A 13.496 13.496 0 0 1 208.313 32.105 A 20.725 20.725 0 0 1 210.753 32.236 Q 213.204 32.528 214.405 33.475 A 2.934 2.934 0 0 1 215.562 35.903 A 20.663 20.663 0 0 1 215.134 39.949 Q 214.746 41.89 214.005 44.022 A 41.312 41.312 0 0 1 213.244 46.037 A 349.074 349.074 0 0 1 212.129 48.748 Q 210.746 52.066 209.65 54.472 A 109.354 109.354 0 0 1 209.299 55.235 L 206.34 62.04 Q 203.149 69.391 203.086 72.71 A 6.96 6.96 0 0 0 203.085 72.841 A 3.124 3.124 0 0 0 203.193 73.699 Q 203.469 74.662 204.452 74.918 A 3.197 3.197 0 0 0 205.255 75.011 Q 207.179 75.011 208.251 74.564 A 3.359 3.359 0 0 0 208.461 74.468 A 10.568 10.568 0 0 1 208.937 74.244 Q 209.643 73.934 210.019 73.926 A 0.929 0.929 0 0 1 210.039 73.926 A 1.375 1.375 0 0 1 210.622 74.04 Q 211.205 74.311 211.302 75.217 A 3.642 3.642 0 0 1 211.321 75.602 A 5.529 5.529 0 0 1 210.847 77.787 Q 210.507 78.581 209.925 79.392 A 11.976 11.976 0 0 1 209.299 80.189 A 9.709 9.709 0 0 1 202.35 83.605 A 13.532 13.532 0 0 1 201.359 83.641 Q 195.638 83.641 193.518 79.005 A 7.464 7.464 0 0 1 192.926 77.205 Q 192.76 76.373 192.734 75.418 A 13.152 13.152 0 0 1 192.729 75.06 Q 192.729 72.742 193.542 69.906 A 66.183 66.183 0 0 1 194.714 66.246 A 80.271 80.271 0 0 1 195.564 63.939 A 133.535 133.535 0 0 1 198.203 57.602 Z M 152.634 76.243 A 6.813 6.813 0 0 0 155.954 75.275 Q 159.686 73.189 164.088 66.608 A 65.627 65.627 0 0 0 164.273 66.331 Q 171.128 56.073 173.841 43.991 A 7.095 7.095 0 0 0 173.395 41.831 A 5.498 5.498 0 0 0 171.03 39.059 A 3.017 3.017 0 0 0 170.311 38.75 Q 169.602 38.54 168.574 38.519 A 11.361 11.361 0 0 0 168.342 38.516 A 6.151 6.151 0 0 0 166.845 38.716 Q 166.149 38.891 165.383 39.219 A 14.519 14.519 0 0 0 164.15 39.823 A 19.212 19.212 0 0 0 161.218 41.813 A 24.099 24.099 0 0 0 159.514 43.349 A 29.706 29.706 0 0 0 156.601 46.719 A 35.795 35.795 0 0 0 155.322 48.552 Q 153.374 51.536 151.944 54.889 A 39.534 39.534 0 0 0 149.39 63.238 A 33.059 33.059 0 0 0 148.837 69.216 A 19.436 19.436 0 0 0 148.97 71.599 Q 149.276 74.057 150.284 75.214 A 2.968 2.968 0 0 0 152.634 76.243 Z M 234.669 75.603 A 3.4 3.4 0 0 0 236.62 76.145 Q 238.926 76.145 242.067 73.048 A 30.535 30.535 0 0 0 243.771 71.213 A 51.006 51.006 0 0 0 248.76 64.201 Q 252.003 58.783 254.769 51.684 A 70.334 70.334 0 0 0 257.333 43.991 A 7.095 7.095 0 0 0 256.888 41.831 A 5.498 5.498 0 0 0 254.522 39.059 Q 253.634 38.516 251.884 38.516 Q 250.6 38.516 248.997 39.206 A 14.283 14.283 0 0 0 247.79 39.799 Q 245.448 41.081 243.253 43.3 A 28.034 28.034 0 0 0 240.626 46.392 A 34.537 34.537 0 0 0 239.16 48.552 A 41.286 41.286 0 0 0 236.196 54.256 A 45.977 45.977 0 0 0 235.831 55.136 Q 232.823 62.731 232.823 70.227 Q 232.823 74.353 234.669 75.603 Z M 217.683 22.415 A 9.074 9.074 0 0 0 220.149 20.541 A 8.771 8.771 0 0 0 220.477 20.169 A 9.403 9.403 0 0 0 221.899 17.828 A 6.805 6.805 0 0 0 222.16 17.107 Q 222.37 16.408 222.472 15.578 A 13.619 13.619 0 0 0 222.565 13.932 A 4.208 4.208 0 0 0 221.397 11.02 A 6.855 6.855 0 0 0 220.149 9.962 A 6.528 6.528 0 0 0 218.003 8.976 A 5.973 5.973 0 0 0 217.821 8.932 Q 216.684 8.68 214.748 8.68 A 6.061 6.061 0 0 0 213.812 8.754 Q 212.906 8.896 211.952 9.307 A 11.438 11.438 0 0 0 210.285 10.209 Q 209.052 10.998 208.239 12.255 Q 207.425 13.513 207.425 16.028 Q 207.425 17.659 208.317 19.269 A 10.441 10.441 0 0 0 209.546 21.009 Q 210.532 22.193 211.888 22.834 A 5.189 5.189 0 0 0 214.132 23.339 A 5.709 5.709 0 0 0 214.773 23.302 A 8.303 8.303 0 0 0 217.683 22.415 Z" vector-effect="non-scaling-stroke"/></g></svg>